<svg t="1595484202945" class="icon" viewBox="0 0 1024 1024" version="1.1" xmlns="http://www.w3.org/2000/svg" p-id="12292" width="32" height="32"><path d="M483.2 4.16c180.544-3.072 279.36 58.304 376.512 136.448 28.864 23.168 45.184 58.432 71.744 83.648l-0.96 1.92-102.656 52.864C774.4 184.768 584.96 82.56 422.4 128.64a462.72 462.72 0 0 0-117.568 49.792l-60.8-64.768c-6.528-6.528-20.48-15.488-15.936-23.872l40.832-24.896c30.4-15.936 62.08-29.248 94.72-39.808 26.24-8.96 55.616-12.608 84.608-17.92L483.2 4.16z m-26.944 1015.808c-57.856 0.832-114.304-23.104-155.456-42.88-140.544-67.456-231.296-172.928-280.96-331.584-46.144-147.712 5.184-317.184 65.792-408.32 15.552-23.424 30.848-51.84 52.8-68.736h1.984l77.696 82.688-3.968 3.968-28.864 37.824a477.376 477.376 0 0 0-53.76 117.504c-10.944 35.328-18.56 89.856-11.008 133.504 5.44 31.552 5.12 56.96 13.952 83.648 35.84 108.16 101.376 181.888 192.256 235.008 24.192 14.08 54.144 24.192 82.688 32.832l46.848 9.984v114.56z m112.576 0l1.024-116.544c47.552 0.128 96.32-23.936 128.512-42.88 108.608-63.744 174.528-148.16 204.16-291.712 8.576-41.408 5.12-102.144-4.928-138.432l-14.976-51.84 102.656-52.736c12.16 31.36 20.48 65.728 28.864 101.568 13.888 59.584 7.616 148.416-6.976 200.192-44.16 156.928-122.368 263.424-252.032 333.632-49.472 26.752-114.048 57.92-186.304 58.752z m180.352-673.28c110.976-2.816 79.552 158.208-21.952 115.584l-139.52 100.544c0.576 42.944-42.752 77.696-86.656 57.792-36.48-16.576-26.496-29.44-37.824-53.76l-164.416-57.792c-37.248 48.064-127.232-7.104-98.56-69.76 26.88-58.816 120.32-44.672 118.528 32.896l157.44 55.808a60.16 60.16 0 0 1 97.6-4.032l125.504-92.608c-15.808-57.6 22.784-81.92 49.856-84.608z m-266.048 2.048c32.896-6.016 62.528 11.264 71.744 47.808a54.72 54.72 0 0 1-1.984 33.792c1.472 0.512 58.112 34.752 60.8 41.856l-32.896 23.872-51.84-34.816c-26.112 19.84-48.384 11.392-70.72-1.024l-33.92 28.928-42.752-14.976c17.92-16.256 54.272-47.808 53.76-48.768-11.968-48.832 27.904-71.232 47.808-76.672z m269.056 80.64c22.016 7.296 36.864-28.864 13.952-40.832-30.912-10.24-44.16 30.848-14.016 40.832z m-500.16 13.952c25.6-6.336 37.184 39.168 7.04 41.856-26.24 2.304-34.176-35.2-7.04-41.856z m430.4 73.728l51.84 34.816c12.928-3.584 24.512-13.696 44.8-9.984 40.64 7.488 70.592 58.624 40.832 98.56-26.88 36.16-89.856 28.224-106.624-11.904-5.632-13.504 0-37.12-4.928-46.784l-58.816-39.872v-0.96l32.896-23.872z m-367.616 15.872l41.856 16-7.04 7.936-38.784 33.856c24.512 79.36-63.04 118.976-104.64 64.704-29.504-38.4-5.376-92.032 36.864-100.608 16.896-3.392 29.44 3.584 40.832 6.016l30.912-27.904z m205.248 9.984c-26.432 9.472-16.448 48.32 10.88 41.856 27.456-6.464 15.488-51.328-10.88-41.856z" fill="#1890FF" p-id="12293"></path></svg>